<svg width="2626" height="450" viewBox="0 0 2626 450" fill="none" xmlns="http://www.w3.org/2000/svg">
<path d="M295.135 45.5727L237.835 167.7L180.535 225.001L123.235 282.301L65.9349 404.428" stroke="white" stroke-width="35.8856"/>
<path d="M65.9331 45.5727L123.233 167.7L180.533 225.001L237.833 282.301L295.133 404.428" stroke="white" stroke-width="35.8856"/>
<path d="M359.96 274.773L237.832 282.301L180.532 225.001L123.232 167.701L1.10438 175.228" stroke="white" stroke-width="35.8856"/>
<path d="M359.96 175.228L237.832 167.7L180.532 225L123.232 282.3L1.10434 274.773" stroke="white" stroke-width="35.8856"/>
<path d="M558.051 363V198.285C558.051 190.39 559.965 183.213 563.793 176.754C567.86 170.055 573.123 164.792 579.582 160.964C586.281 156.897 593.578 154.864 601.473 154.864H718.46V184.29H601.473C597.645 184.29 594.296 185.725 591.425 188.596C588.793 191.228 587.477 194.457 587.477 198.285V363H558.051ZM784.747 363C776.852 363 769.555 361.086 762.857 357.258C756.397 353.191 751.134 347.928 747.067 341.469C743.239 334.77 741.325 327.473 741.325 319.578V198.285C741.325 190.39 743.239 183.213 747.067 176.754C751.134 170.055 756.397 164.792 762.857 160.964C769.555 156.897 776.852 154.864 784.747 154.864H909.629C917.763 154.864 925.06 156.897 931.519 160.964C938.218 164.792 943.481 170.055 947.309 176.754C951.376 183.213 953.409 190.39 953.409 198.285V273.645H770.752V319.578C770.752 323.406 772.067 326.756 774.699 329.626C777.57 332.258 780.919 333.574 784.747 333.574H953.409V363H784.747ZM770.752 244.219H923.624V198.285C923.624 194.457 922.189 191.228 919.318 188.596C916.686 185.725 913.457 184.29 909.629 184.29H784.747C780.919 184.29 777.57 185.725 774.699 188.596C772.067 191.228 770.752 194.457 770.752 198.285V244.219ZM990.868 363V86.6811H1020.29V244.219H1077.71L1159.53 154.864H1198.29V155.223L1103.91 258.932L1197.93 362.641V363H1159.53L1077.71 273.645H1020.29V363H990.868ZM1265.21 363C1257.31 363 1250.02 361.086 1243.32 357.258C1236.86 353.191 1231.59 347.928 1227.53 341.469C1223.7 334.77 1221.79 327.473 1221.79 319.578V198.285C1221.79 190.39 1223.7 183.213 1227.53 176.754C1231.59 170.055 1236.86 164.792 1243.32 160.964C1250.02 156.897 1257.31 154.864 1265.21 154.864H1390.09C1398.22 154.864 1405.52 156.897 1411.98 160.964C1418.68 164.792 1423.94 170.055 1427.77 176.754C1431.84 183.213 1433.87 190.39 1433.87 198.285V319.578C1433.87 327.473 1431.84 334.77 1427.77 341.469C1423.94 347.928 1418.68 353.191 1411.98 357.258C1405.52 361.086 1398.22 363 1390.09 363H1265.21ZM1265.21 333.574H1390.09C1393.92 333.574 1397.15 332.258 1399.78 329.626C1402.65 326.756 1404.08 323.406 1404.08 319.578V198.285C1404.08 194.457 1402.65 191.228 1399.78 188.596C1397.15 185.725 1393.92 184.29 1390.09 184.29H1265.21C1261.38 184.29 1258.03 185.725 1255.16 188.596C1252.53 191.228 1251.21 194.457 1251.21 198.285V319.578C1251.21 323.406 1252.53 326.756 1255.16 329.626C1258.03 332.258 1261.38 333.574 1265.21 333.574ZM1466.07 363V154.864H1634.73C1642.63 154.864 1649.81 156.897 1656.26 160.964C1662.96 164.792 1668.23 170.055 1672.05 176.754C1676.12 183.213 1678.15 190.39 1678.15 198.285V363H1648.73V198.285C1648.73 194.457 1647.29 191.228 1644.42 188.596C1641.79 185.725 1638.56 184.29 1634.73 184.29H1509.85C1506.02 184.29 1502.67 185.725 1499.8 188.596C1496.93 191.228 1495.5 194.457 1495.5 198.285V363H1466.07ZM1856.42 363C1848.52 363 1841.22 361.086 1834.53 357.258C1828.07 353.191 1822.8 347.928 1818.74 341.469C1814.91 334.77 1812.99 327.473 1812.99 319.578V86.6811H1842.42V319.578C1842.42 323.406 1843.74 326.756 1846.37 329.626C1849.24 332.258 1852.59 333.574 1856.42 333.574H1891.58V363H1856.42ZM1961.2 363C1953.3 363 1946.01 361.086 1939.31 357.258C1932.85 353.191 1927.59 347.928 1923.52 341.469C1919.69 334.77 1917.78 327.473 1917.78 319.578V244.219H2100.08V198.285C2100.08 194.457 2098.64 191.228 2095.77 188.596C2093.14 185.725 2089.91 184.29 2086.08 184.29H1917.78V154.864H2086.08C2094.22 154.864 2101.51 156.897 2107.97 160.964C2114.67 164.792 2119.93 170.055 2123.76 176.754C2127.83 183.213 2129.86 190.39 2129.86 198.285V363H1961.2ZM1961.2 333.574H2100.08V273.645H1947.2V319.578C1947.2 323.406 1948.52 326.756 1951.15 329.626C1954.02 332.258 1957.37 333.574 1961.2 333.574ZM2158.55 363V86.6811H2187.98V154.864H2327.21C2335.11 154.864 2342.28 156.897 2348.74 160.964C2355.44 164.792 2360.71 170.055 2364.53 176.754C2368.6 183.213 2370.63 190.39 2370.63 198.285V319.578C2370.63 327.473 2368.6 334.77 2364.53 341.469C2360.71 347.928 2355.44 353.191 2348.74 357.258C2342.28 361.086 2335.11 363 2327.21 363H2158.55ZM2202.33 333.574H2327.21C2331.04 333.574 2334.27 332.258 2336.9 329.626C2339.77 326.756 2341.21 323.406 2341.21 319.578V198.285C2341.21 194.457 2339.77 191.228 2336.9 188.596C2334.27 185.725 2331.04 184.29 2327.21 184.29H2202.33C2198.5 184.29 2195.15 185.725 2192.28 188.596C2189.41 191.228 2187.98 194.457 2187.98 198.285V319.578C2187.98 323.406 2189.41 326.756 2192.28 329.626C2195.15 332.258 2198.5 333.574 2202.33 333.574ZM2439.17 363C2431.28 363 2423.98 361.086 2417.28 357.258C2410.82 353.191 2405.56 347.928 2401.49 341.469C2397.67 334.77 2395.75 327.473 2395.75 319.578V316.708H2425.18V319.578C2425.18 323.406 2426.49 326.756 2429.12 329.626C2432 332.258 2435.34 333.574 2439.17 333.574H2564.05C2567.88 333.574 2571.11 332.258 2573.74 329.626C2576.61 326.756 2578.05 323.406 2578.05 319.578V287.64C2578.05 283.813 2576.61 280.583 2573.74 277.951C2571.11 275.08 2567.88 273.645 2564.05 273.645H2439.17C2431.28 273.645 2423.98 271.731 2417.28 267.903C2410.82 263.836 2405.56 258.573 2401.49 252.114C2397.67 245.415 2395.75 238.118 2395.75 230.223V198.285C2395.75 190.39 2397.67 183.213 2401.49 176.754C2405.56 170.055 2410.82 164.792 2417.28 160.964C2423.98 156.897 2431.28 154.864 2439.17 154.864H2564.05C2572.19 154.864 2579.49 156.897 2585.94 160.964C2592.64 164.792 2597.91 170.055 2601.73 176.754C2605.8 183.213 2607.83 190.39 2607.83 198.285V201.156H2578.05V198.285C2578.05 194.457 2576.61 191.228 2573.74 188.596C2571.11 185.725 2567.88 184.29 2564.05 184.29H2439.17C2435.34 184.29 2432 185.725 2429.12 188.596C2426.49 191.228 2425.18 194.457 2425.18 198.285V230.223C2425.18 234.051 2426.49 237.4 2429.12 240.271C2432 242.903 2435.34 244.219 2439.17 244.219H2564.05C2572.19 244.219 2579.49 246.252 2585.94 250.319C2592.64 254.147 2597.91 259.41 2601.73 266.109C2605.8 272.568 2607.83 279.745 2607.83 287.64V319.578C2607.83 327.473 2605.8 334.77 2601.73 341.469C2597.91 347.928 2592.64 353.191 2585.94 357.258C2579.49 361.086 2572.19 363 2564.05 363H2439.17Z" fill="white"/>
</svg>
